<mxfile host="app.diagrams.net" agent="Mozilla/5.0 (X11; Linux x86_64) AppleWebKit/537.36 (KHTML, like Gecko) Chrome/127.0.0.0 Safari/537.36" version="24.7.6">
  <diagram name="Page-1" id="KhE-K2PRzI3YNJ65aeja">
    <mxGraphModel dx="1602" dy="759" grid="0" gridSize="10" guides="1" tooltips="1" connect="1" arrows="1" fold="1" page="1" pageScale="1" pageWidth="1920" pageHeight="1200" math="0" shadow="0">
      <root>
        <mxCell id="0" />
        <mxCell id="1" parent="0" />
        <mxCell id="VWrq2o7tR5_wsKOVZ6nu-3" style="edgeStyle=orthogonalEdgeStyle;rounded=0;orthogonalLoop=1;jettySize=auto;html=1;exitX=0.5;exitY=0;exitDx=0;exitDy=0;entryX=0;entryY=0.5;entryDx=0;entryDy=0;" parent="1" source="VWrq2o7tR5_wsKOVZ6nu-1" target="VWrq2o7tR5_wsKOVZ6nu-2" edge="1">
          <mxGeometry relative="1" as="geometry" />
        </mxCell>
        <mxCell id="VWrq2o7tR5_wsKOVZ6nu-1" value="data_publisher" style="ellipse;whiteSpace=wrap;html=1;" parent="1" vertex="1">
          <mxGeometry x="72" y="538" width="120" height="80" as="geometry" />
        </mxCell>
        <mxCell id="VWrq2o7tR5_wsKOVZ6nu-8" style="edgeStyle=orthogonalEdgeStyle;rounded=0;orthogonalLoop=1;jettySize=auto;html=1;exitX=0;exitY=0.25;exitDx=0;exitDy=0;entryX=0;entryY=1;entryDx=0;entryDy=0;" parent="1" source="VWrq2o7tR5_wsKOVZ6nu-2" target="VWrq2o7tR5_wsKOVZ6nu-6" edge="1">
          <mxGeometry relative="1" as="geometry">
            <Array as="points">
              <mxPoint x="53" y="493" />
              <mxPoint x="53" y="826" />
            </Array>
          </mxGeometry>
        </mxCell>
        <mxCell id="VWrq2o7tR5_wsKOVZ6nu-15" style="edgeStyle=orthogonalEdgeStyle;rounded=0;orthogonalLoop=1;jettySize=auto;html=1;exitX=1;exitY=0.5;exitDx=0;exitDy=0;entryX=0.5;entryY=0;entryDx=0;entryDy=0;" parent="1" source="VWrq2o7tR5_wsKOVZ6nu-2" target="VWrq2o7tR5_wsKOVZ6nu-13" edge="1">
          <mxGeometry relative="1" as="geometry" />
        </mxCell>
        <mxCell id="Tlk9f3vFO5QFQGuBwKnU-1" style="edgeStyle=orthogonalEdgeStyle;rounded=0;orthogonalLoop=1;jettySize=auto;html=1;exitX=1;exitY=0.25;exitDx=0;exitDy=0;entryX=0.5;entryY=0;entryDx=0;entryDy=0;" edge="1" parent="1" source="VWrq2o7tR5_wsKOVZ6nu-2" target="VWrq2o7tR5_wsKOVZ6nu-17">
          <mxGeometry relative="1" as="geometry" />
        </mxCell>
        <mxCell id="VWrq2o7tR5_wsKOVZ6nu-2" value="/hslam_data" style="rounded=0;whiteSpace=wrap;html=1;" parent="1" vertex="1">
          <mxGeometry x="237" y="478" width="120" height="60" as="geometry" />
        </mxCell>
        <mxCell id="VWrq2o7tR5_wsKOVZ6nu-9" style="edgeStyle=orthogonalEdgeStyle;rounded=0;orthogonalLoop=1;jettySize=auto;html=1;exitX=0;exitY=0.75;exitDx=0;exitDy=0;entryX=0;entryY=0;entryDx=0;entryDy=0;" parent="1" source="VWrq2o7tR5_wsKOVZ6nu-4" target="VWrq2o7tR5_wsKOVZ6nu-6" edge="1">
          <mxGeometry relative="1" as="geometry">
            <Array as="points">
              <mxPoint x="104" y="663" />
              <mxPoint x="104" y="770" />
            </Array>
          </mxGeometry>
        </mxCell>
        <mxCell id="VWrq2o7tR5_wsKOVZ6nu-16" style="edgeStyle=orthogonalEdgeStyle;rounded=0;orthogonalLoop=1;jettySize=auto;html=1;exitX=1;exitY=0.5;exitDx=0;exitDy=0;entryX=0.5;entryY=1;entryDx=0;entryDy=0;" parent="1" source="VWrq2o7tR5_wsKOVZ6nu-4" target="VWrq2o7tR5_wsKOVZ6nu-13" edge="1">
          <mxGeometry relative="1" as="geometry" />
        </mxCell>
        <mxCell id="VWrq2o7tR5_wsKOVZ6nu-25" style="edgeStyle=orthogonalEdgeStyle;rounded=0;orthogonalLoop=1;jettySize=auto;html=1;exitX=0.5;exitY=1;exitDx=0;exitDy=0;entryX=0;entryY=0.5;entryDx=0;entryDy=0;" parent="1" source="VWrq2o7tR5_wsKOVZ6nu-4" target="VWrq2o7tR5_wsKOVZ6nu-23" edge="1">
          <mxGeometry relative="1" as="geometry" />
        </mxCell>
        <mxCell id="VWrq2o7tR5_wsKOVZ6nu-4" value="/gps_data" style="rounded=0;whiteSpace=wrap;html=1;" parent="1" vertex="1">
          <mxGeometry x="237" y="618" width="120" height="60" as="geometry" />
        </mxCell>
        <mxCell id="VWrq2o7tR5_wsKOVZ6nu-5" style="edgeStyle=orthogonalEdgeStyle;rounded=0;orthogonalLoop=1;jettySize=auto;html=1;exitX=0.5;exitY=1;exitDx=0;exitDy=0;entryX=0;entryY=0.5;entryDx=0;entryDy=0;" parent="1" source="VWrq2o7tR5_wsKOVZ6nu-1" target="VWrq2o7tR5_wsKOVZ6nu-4" edge="1">
          <mxGeometry relative="1" as="geometry">
            <mxPoint x="100" y="720" as="targetPoint" />
          </mxGeometry>
        </mxCell>
        <mxCell id="VWrq2o7tR5_wsKOVZ6nu-11" style="edgeStyle=orthogonalEdgeStyle;rounded=0;orthogonalLoop=1;jettySize=auto;html=1;exitX=1;exitY=0.5;exitDx=0;exitDy=0;entryX=0;entryY=0.5;entryDx=0;entryDy=0;" parent="1" source="VWrq2o7tR5_wsKOVZ6nu-6" target="VWrq2o7tR5_wsKOVZ6nu-10" edge="1">
          <mxGeometry relative="1" as="geometry" />
        </mxCell>
        <mxCell id="VWrq2o7tR5_wsKOVZ6nu-6" value="get_timestamp" style="ellipse;whiteSpace=wrap;html=1;" parent="1" vertex="1">
          <mxGeometry x="231" y="758" width="120" height="80" as="geometry" />
        </mxCell>
        <mxCell id="VWrq2o7tR5_wsKOVZ6nu-26" style="edgeStyle=orthogonalEdgeStyle;rounded=0;orthogonalLoop=1;jettySize=auto;html=1;exitX=1;exitY=0.5;exitDx=0;exitDy=0;entryX=0.5;entryY=1;entryDx=0;entryDy=0;" parent="1" source="VWrq2o7tR5_wsKOVZ6nu-10" target="VWrq2o7tR5_wsKOVZ6nu-23" edge="1">
          <mxGeometry relative="1" as="geometry" />
        </mxCell>
        <mxCell id="VWrq2o7tR5_wsKOVZ6nu-10" value="/ordered_timestamps" style="whiteSpace=wrap;html=1;" parent="1" vertex="1">
          <mxGeometry x="406.0013793103449" y="768.001724137931" width="120" height="60" as="geometry" />
        </mxCell>
        <mxCell id="VWrq2o7tR5_wsKOVZ6nu-12" style="edgeStyle=orthogonalEdgeStyle;rounded=0;orthogonalLoop=1;jettySize=auto;html=1;exitX=1;exitY=0.5;exitDx=0;exitDy=0;entryX=0;entryY=0.5;entryDx=0;entryDy=0;" parent="1" source="VWrq2o7tR5_wsKOVZ6nu-13" target="VWrq2o7tR5_wsKOVZ6nu-14" edge="1">
          <mxGeometry relative="1" as="geometry" />
        </mxCell>
        <mxCell id="VWrq2o7tR5_wsKOVZ6nu-13" value="get_transformation" style="ellipse;whiteSpace=wrap;html=1;" parent="1" vertex="1">
          <mxGeometry x="399" y="538" width="120" height="80" as="geometry" />
        </mxCell>
        <mxCell id="VWrq2o7tR5_wsKOVZ6nu-18" style="edgeStyle=orthogonalEdgeStyle;rounded=0;orthogonalLoop=1;jettySize=auto;html=1;exitX=1;exitY=0.5;exitDx=0;exitDy=0;entryX=0;entryY=0.5;entryDx=0;entryDy=0;" parent="1" source="VWrq2o7tR5_wsKOVZ6nu-14" target="VWrq2o7tR5_wsKOVZ6nu-17" edge="1">
          <mxGeometry relative="1" as="geometry" />
        </mxCell>
        <mxCell id="VWrq2o7tR5_wsKOVZ6nu-14" value="/transformation_parameters" style="whiteSpace=wrap;html=1;" parent="1" vertex="1">
          <mxGeometry x="574" y="548" width="158" height="60" as="geometry" />
        </mxCell>
        <mxCell id="VWrq2o7tR5_wsKOVZ6nu-20" value="" style="edgeStyle=orthogonalEdgeStyle;rounded=0;orthogonalLoop=1;jettySize=auto;html=1;" parent="1" source="VWrq2o7tR5_wsKOVZ6nu-17" target="VWrq2o7tR5_wsKOVZ6nu-19" edge="1">
          <mxGeometry relative="1" as="geometry" />
        </mxCell>
        <mxCell id="VWrq2o7tR5_wsKOVZ6nu-17" value="&lt;span style=&quot;background-color: initial;&quot;&gt;transform&lt;/span&gt;" style="ellipse;whiteSpace=wrap;html=1;" parent="1" vertex="1">
          <mxGeometry x="787" y="538" width="120" height="80" as="geometry" />
        </mxCell>
        <mxCell id="VWrq2o7tR5_wsKOVZ6nu-24" style="edgeStyle=orthogonalEdgeStyle;rounded=0;orthogonalLoop=1;jettySize=auto;html=1;exitX=0.5;exitY=1;exitDx=0;exitDy=0;entryX=0.5;entryY=0;entryDx=0;entryDy=0;" parent="1" source="VWrq2o7tR5_wsKOVZ6nu-19" target="VWrq2o7tR5_wsKOVZ6nu-23" edge="1">
          <mxGeometry relative="1" as="geometry" />
        </mxCell>
        <mxCell id="VWrq2o7tR5_wsKOVZ6nu-19" value="/transformed_data" style="whiteSpace=wrap;html=1;" parent="1" vertex="1">
          <mxGeometry x="987" y="548" width="120" height="60" as="geometry" />
        </mxCell>
        <mxCell id="VWrq2o7tR5_wsKOVZ6nu-28" style="edgeStyle=orthogonalEdgeStyle;rounded=0;orthogonalLoop=1;jettySize=auto;html=1;exitX=1;exitY=0.5;exitDx=0;exitDy=0;entryX=1;entryY=0.5;entryDx=0;entryDy=0;" parent="1" source="VWrq2o7tR5_wsKOVZ6nu-23" target="VWrq2o7tR5_wsKOVZ6nu-27" edge="1">
          <mxGeometry relative="1" as="geometry" />
        </mxCell>
        <mxCell id="VWrq2o7tR5_wsKOVZ6nu-23" value="&lt;span style=&quot;background-color: initial;&quot;&gt;synchronize_data&lt;/span&gt;" style="ellipse;whiteSpace=wrap;html=1;" parent="1" vertex="1">
          <mxGeometry x="987" y="662" width="120" height="80" as="geometry" />
        </mxCell>
        <mxCell id="VWrq2o7tR5_wsKOVZ6nu-30" style="edgeStyle=orthogonalEdgeStyle;rounded=0;orthogonalLoop=1;jettySize=auto;html=1;exitX=0;exitY=0.5;exitDx=0;exitDy=0;entryX=1;entryY=0.5;entryDx=0;entryDy=0;" parent="1" source="VWrq2o7tR5_wsKOVZ6nu-27" target="VWrq2o7tR5_wsKOVZ6nu-29" edge="1">
          <mxGeometry relative="1" as="geometry" />
        </mxCell>
        <mxCell id="VWrq2o7tR5_wsKOVZ6nu-27" value="/synchronized_data" style="rounded=0;whiteSpace=wrap;html=1;" parent="1" vertex="1">
          <mxGeometry x="987" y="878" width="120" height="60" as="geometry" />
        </mxCell>
        <mxCell id="VWrq2o7tR5_wsKOVZ6nu-34" value="" style="edgeStyle=orthogonalEdgeStyle;rounded=0;orthogonalLoop=1;jettySize=auto;html=1;" parent="1" source="VWrq2o7tR5_wsKOVZ6nu-29" target="VWrq2o7tR5_wsKOVZ6nu-33" edge="1">
          <mxGeometry relative="1" as="geometry" />
        </mxCell>
        <mxCell id="VWrq2o7tR5_wsKOVZ6nu-29" value="EKF_NODE" style="ellipse;whiteSpace=wrap;html=1;" parent="1" vertex="1">
          <mxGeometry x="787" y="868" width="120" height="80" as="geometry" />
        </mxCell>
        <mxCell id="VWrq2o7tR5_wsKOVZ6nu-36" style="edgeStyle=orthogonalEdgeStyle;rounded=0;orthogonalLoop=1;jettySize=auto;html=1;exitX=0;exitY=0.5;exitDx=0;exitDy=0;entryX=1;entryY=0.5;entryDx=0;entryDy=0;" parent="1" source="VWrq2o7tR5_wsKOVZ6nu-33" target="VWrq2o7tR5_wsKOVZ6nu-35" edge="1">
          <mxGeometry relative="1" as="geometry" />
        </mxCell>
        <mxCell id="VWrq2o7tR5_wsKOVZ6nu-33" value="&lt;span style=&quot;color: rgb(0, 0, 0); font-family: Helvetica; font-size: 12px; font-style: normal; font-variant-ligatures: normal; font-variant-caps: normal; font-weight: 400; letter-spacing: normal; orphans: 2; text-align: center; text-indent: 0px; text-transform: none; widows: 2; word-spacing: 0px; -webkit-text-stroke-width: 0px; white-space: normal; background-color: rgb(251, 251, 251); text-decoration-thickness: initial; text-decoration-style: initial; text-decoration-color: initial; display: inline !important; float: none;&quot;&gt;/odometry_filtered&lt;/span&gt;" style="whiteSpace=wrap;html=1;" parent="1" vertex="1">
          <mxGeometry x="593" y="878" width="120" height="60" as="geometry" />
        </mxCell>
        <mxCell id="VWrq2o7tR5_wsKOVZ6nu-35" value="create_ekf_txt" style="ellipse;whiteSpace=wrap;html=1;" parent="1" vertex="1">
          <mxGeometry x="406" y="868" width="120" height="80" as="geometry" />
        </mxCell>
      </root>
    </mxGraphModel>
  </diagram>
</mxfile>
